# xmcd
#
# Track frame offsets: 
#        150
#        12307
#        25873
#        40292
#        56881
#        75391
#        91451
#        105888
#        124968
#        144757
#        159301
#        174882
#        191973
#        207516
#        221763
#
# Disc length: 3184 seconds
#
# Revision: 0
# Processed by: cddbd v1.5.2PL0 Copyright (c) Steve Scherf et al.
# Submitted via: ExactAudioCopy v0.99pb4
#
DISCID=c70c6e0f
DTITLE=Input - A Radio With Guts
DYEAR=2007
DGENRE=Hip-Hop
TTITLE0=Yesterday
TTITLE1=Welcome Back
TTITLE2=The World On Its Last Breath
TTITLE3=A Radio With Guts
TTITLE4=Through the Good and The Bad
TTITLE5=Grace
TTITLE6=Tonight
TTITLE7=Personal Service Announcement
TTITLE8=Square One
TTITLE9=I Don't Know
TTITLE10=Not That Type
TTITLE11=Too Many Hopes
TTITLE12=Fate Is An Assassin
TTITLE13=A Letter to Myself
TTITLE14=Admiration
EXTD=
EXTT0=
EXTT1=
EXTT2=
EXTT3=
EXTT4=
EXTT5=
EXTT6=
EXTT7=
EXTT8=
EXTT9=
EXTT10=
EXTT11=
EXTT12=
EXTT13=
EXTT14=
PLAYORDER=
